<svg xmlns="http://www.w3.org/2000/svg" version="1.1" viewBox="-5.0 -10.0 110.0 135.0">
 <g>
  <path d="m90.246 9.6836c-2.2461-1.9961-5.6445-2.0117-7.9062-0.039063l-24.496 21.352c-0.78906 0.68359-1.9258 0.73438-2.7656 0.11719l-8.0273-5.8789 22.664-5.7109c2.2656-0.57031 3.7656-2.75 3.4883-5.0703-0.14844-1.25-0.78125-2.3633-1.7734-3.1367-0.99609-0.77344-2.2305-1.1055-3.4805-0.93359l-27.648 3.7617c-2.3906 0.32422-4.6406 1.2461-6.5703 2.6406-0.039063 0.019532-0.066407 0.046875-0.10156 0.074219-0.86328 0.63672-1.6719 1.3594-2.3867 2.1758l-6.2422 7.1758c-2.3398 2.6914-3.6133 6.1367-3.5859 9.6992 0.042969 5.75 0.75781 13.789 3.9219 19.445 0.75391 1.3516 2.1406 2.2148 3.707 2.3164 1.5352 0.10156 2.9883-0.56641 3.8867-1.7812 1.4297-1.9297 2.3633-4.7656 2.7891-8.4766 2.3359 1.2031 4.6758 2.4688 5.4766 2.9961l4.2227 38.199c0.32422 2.9414 2.8008 5.1562 5.7578 5.1562 1.5664 0 3.0312-0.61328 4.1289-1.7266 1.0977-1.1133 1.6875-2.5859 1.6641-4.1523l-0.38672-25.703c-0.10938-7.168 2.8047-14.117 7.9883-19.066l25.824-24.641c1.207-1.1484 1.8789-2.7656 1.8516-4.4336-0.03125-1.668-0.76172-3.2617-2.0078-4.3672zm-48.613 38.398c-0.53125-0.31641-1.2578-0.72656-2.2344-1.2461l12.152-15.535 1.9766 1.4453-11.891 15.336zm-1.0312-31.723 27.648-3.7617c0.64844-0.085937 1.2969 0.085938 1.8164 0.48828 0.51953 0.40234 0.85156 0.98437 0.92578 1.6367 0.14453 1.2109-0.64063 2.3516-1.8242 2.6484l-24.961 6.2891c-0.41797 0.10547-0.73828 0.44141-0.82031 0.86328-0.082031 0.42187 0.085937 0.85937 0.43359 1.1094l5.4961 4.0234-12.117 0.16406-1.7188-11.551c1.5312-1.0039 3.2773-1.6641 5.1211-1.918zm-7.6797 4.1445c0.17578-0.20312 0.36328-0.39062 0.55078-0.57812l1.4805 9.9336-9.8477 0.13672c0.4375-0.82031 0.95703-1.6016 1.5781-2.3125l6.2422-7.1758zm3.0547 20.637c1.1094-2.4336 2.0469-6.6367-0.97656-8.1484-1.7656-0.88281-4.2266-0.32031-6.1133 1.4023-1.8828 1.7148-3.3789 4.8867-1.9219 8.6406 0.22266 0.57422 0.87109 0.85938 1.4414 0.63672 0.57422-0.22266 0.85938-0.86719 0.63672-1.4414-1.3203-3.4062 0.69531-5.6016 1.3438-6.1914 1.1758-1.0742 2.6992-1.5156 3.6211-1.0586 1.9023 0.95312-0.125 5.3906-0.14844 5.4375-0.074219 0.15625-0.11328 0.33203-0.10938 0.50781 0.1875 8.1172-1.3125 11.898-2.6016 13.641-0.45313 0.61328-1.1719 0.94141-1.957 0.88281-0.80859-0.050781-1.5234-0.49219-1.9062-1.1797-2.9297-5.2422-3.5938-12.887-3.6367-18.375-0.011719-1.2539 0.18359-2.4844 0.53906-3.6641l24.074-0.32812-10.855 13.879c-0.46094-0.23828-0.94141-0.48828-1.4766-0.76172 0.066406-1.2188 0.085937-2.5117 0.058593-3.8789zm52.887-24.266-25.824 24.641c-5.6328 5.375-8.7969 12.922-8.6797 20.707l0.38672 25.703c0.015625 0.96094-0.35156 1.8711-1.0234 2.5586-0.67578 0.68359-1.5781 1.0625-2.5391 1.0625-1.8203 0-3.3438-1.3633-3.5469-3.1758l-4.2734-38.648c-0.007812-0.058594-0.035156-0.11328-0.050781-0.17188l12.297-15.859c1.2891 0.23438 2.6484-0.10156 3.6992-1.0156l24.496-21.352c1.4219-1.2383 3.5547-1.2266 4.9648 0.023437 0.79688 0.70312 1.2422 1.6797 1.2617 2.7422s-0.39453 2.0508-1.1641 2.7852z"/>
  <path d="m28.109 16.406c0-5.6133-4.5664-10.18-10.184-10.18-5.6133 0-10.18 4.5664-10.18 10.18s4.5664 10.18 10.18 10.18 10.184-4.5664 10.184-10.18zm-10.18 7.9531c-4.3867 0-7.9531-3.5664-7.9531-7.9531s3.5664-7.9531 7.9531-7.9531c4.3867 0 7.9531 3.5664 7.9531 7.9531s-3.5703 7.9531-7.9531 7.9531z"/>
 </g>
<text x="0.0" y="117.5" font-size="5.0" font-weight="bold" font-family="Arbeit Regular, Helvetica, Arial-Unicode, Arial, Sans-serif" fill="#000000">Created by Akhmad Sobahus Surur</text><text x="0.0" y="122.5" font-size="5.0" font-weight="bold" font-family="Arbeit Regular, Helvetica, Arial-Unicode, Arial, Sans-serif" fill="#000000">from Noun Project</text></svg>